<?xml version="1.0" encoding="utf-8"?>
<!-- Generator: Adobe Illustrator 27.5.0, SVG Export Plug-In . SVG Version: 6.00 Build 0)  -->
<svg version="1.1" xmlns="http://www.w3.org/2000/svg" xmlns:xlink="http://www.w3.org/1999/xlink" x="0px" y="0px"
	 viewBox="0 0 500 500" style="enable-background:new 0 0 500 500;" xml:space="preserve">
<g id="Background_Simple">
	<g>
		<path style="fill:#C6FF00;" d="M451.351,279.684c-0.336-1.743-0.685-3.466-1.047-5.166
			c-9.165-43.085-27.613-87.587-60.503-117.957c-14.248-13.156-31.478-23.199-50.682-26.817
			c-23.443-4.417-47.813,1.701-69.349,11.96s-40.869,24.513-60.831,37.572c-12.889,8.432-26.521,16.558-41.727,19.009
			c-18.21,2.935-36.845-2.561-55.207-0.816c-28.804,2.737-54.187,24.216-64.56,51.227s-6.62,58.36,7.055,83.859
			c13.675,25.499,36.545,45.357,62.341,58.463c35.753,18.165,78.031,23.841,116.905,13.986
			c18.959-4.807,37.339-13.208,56.895-13.556c24.261-0.431,46.985,11.571,71.022,14.887c22.564,3.113,46.616-1.989,64.57-16.013
			C459.497,364.339,458.563,317.143,451.351,279.684z"/>
		<path style="opacity:0.7;fill:#FFFFFF;" d="M451.351,279.684c-0.336-1.743-0.685-3.466-1.047-5.166
			c-9.165-43.085-27.613-87.587-60.503-117.957c-14.248-13.156-31.478-23.199-50.682-26.817
			c-23.443-4.417-47.813,1.701-69.349,11.96s-40.869,24.513-60.831,37.572c-12.889,8.432-26.521,16.558-41.727,19.009
			c-18.21,2.935-36.845-2.561-55.207-0.816c-28.804,2.737-54.187,24.216-64.56,51.227s-6.62,58.36,7.055,83.859
			c13.675,25.499,36.545,45.357,62.341,58.463c35.753,18.165,78.031,23.841,116.905,13.986
			c18.959-4.807,37.339-13.208,56.895-13.556c24.261-0.431,46.985,11.571,71.022,14.887c22.564,3.113,46.616-1.989,64.57-16.013
			C459.497,364.339,458.563,317.143,451.351,279.684z"/>
	</g>
</g>
<g id="Clouds">
	<g>
		<path style="fill:#FFFFFF;" d="M381.212,173.947c-3.252-1.773-4.73-0.296-5.912-1.773c-1.182-1.478,3.252-5.321-5.617-9.164
			c0,0-0.591-8.277-12.711-8.573c-12.12-0.296-8.868,8.277-12.12,10.346c-3.252,2.069-4.138-1.182-7.39,0.887
			c-3.252,2.069-1.774,6.208-4.434,6.799c-2.661,0.591-6.208-2.661-9.46-0.591c-3.252,2.069-3.252,3.843-4.73,3.843
			c-1.478,0-4.434-1.182-6.208,0c-1.774,1.182-3.843,2.661-3.843,2.661h74.789C383.577,178.382,384.464,175.721,381.212,173.947z"/>
		<path style="opacity:0.5;fill:#FFFFFF;" d="M381.212,173.947c-3.252-1.773-4.73-0.296-5.912-1.773
			c-1.182-1.478,3.252-5.321-5.617-9.164c0,0-0.591-8.277-12.711-8.573c-12.12-0.296-8.868,8.277-12.12,10.346
			c-3.252,2.069-4.138-1.182-7.39,0.887c-3.252,2.069-1.774,6.208-4.434,6.799c-2.661,0.591-6.208-2.661-9.46-0.591
			c-3.252,2.069-3.252,3.843-4.73,3.843c-1.478,0-4.434-1.182-6.208,0c-1.774,1.182-3.843,2.661-3.843,2.661h74.789
			C383.577,178.382,384.464,175.721,381.212,173.947z"/>
	</g>
	<g>
		<path style="fill:#FFFFFF;" d="M254.545,369.947c-3.252-1.773-4.73-0.296-5.912-1.773c-1.182-1.478,3.252-5.321-5.617-9.164
			c0,0-0.591-8.277-12.711-8.573c-12.12-0.295-8.868,8.277-12.12,10.346c-3.252,2.069-4.139-1.182-7.39,0.887
			c-3.252,2.069-1.774,6.208-4.434,6.799c-2.661,0.591-6.208-2.66-9.46-0.591c-3.252,2.069-3.252,3.843-4.73,3.843
			c-1.478,0-4.434-1.182-6.208,0c-1.774,1.182-3.843,2.66-3.843,2.66h74.789C256.91,374.382,257.797,371.721,254.545,369.947z"/>
		<path style="opacity:0.5;fill:#FFFFFF;" d="M254.545,369.947c-3.252-1.773-4.73-0.296-5.912-1.773
			c-1.182-1.478,3.252-5.321-5.617-9.164c0,0-0.591-8.277-12.711-8.573c-12.12-0.295-8.868,8.277-12.12,10.346
			c-3.252,2.069-4.139-1.182-7.39,0.887c-3.252,2.069-1.774,6.208-4.434,6.799c-2.661,0.591-6.208-2.66-9.46-0.591
			c-3.252,2.069-3.252,3.843-4.73,3.843c-1.478,0-4.434-1.182-6.208,0c-1.774,1.182-3.843,2.66-3.843,2.66h74.789
			C256.91,374.382,257.797,371.721,254.545,369.947z"/>
	</g>
	<g>
		<path style="fill:#FFFFFF;" d="M194.117,337.034c-5.088-2.775-7.4-0.462-9.25-2.775c-1.85-2.313,5.087-8.325-8.787-14.337
			c0,0-0.925-12.95-19.887-13.412c-18.962-0.462-13.875,12.95-18.962,16.187c-5.087,3.237-6.475-1.85-11.562,1.388
			c-5.088,3.237-2.775,9.712-6.937,10.638c-4.162,0.925-9.712-4.163-14.8-0.925c-5.087,3.237-5.087,6.012-7.4,6.012
			c-2.312,0-6.938-1.85-9.712,0c-2.775,1.85-6.012,4.162-6.012,4.162h117.01C197.817,343.972,199.205,339.81,194.117,337.034z"/>
		<path style="opacity:0.5;fill:#FFFFFF;" d="M194.117,337.034c-5.088-2.775-7.4-0.462-9.25-2.775
			c-1.85-2.313,5.087-8.325-8.787-14.337c0,0-0.925-12.95-19.887-13.412c-18.962-0.462-13.875,12.95-18.962,16.187
			c-5.087,3.237-6.475-1.85-11.562,1.388c-5.088,3.237-2.775,9.712-6.937,10.638c-4.162,0.925-9.712-4.163-14.8-0.925
			c-5.087,3.237-5.087,6.012-7.4,6.012c-2.312,0-6.938-1.85-9.712,0c-2.775,1.85-6.012,4.162-6.012,4.162h117.01
			C197.817,343.972,199.205,339.81,194.117,337.034z"/>
	</g>
</g>
<g id="Mail">
	<g>
		<path style="fill:#263238;stroke:#263238;stroke-linecap:round;stroke-linejoin:round;stroke-miterlimit:10;" d="M247.521,71.57
			c-34.91,0-63.305,25.467-64.287,57.218l-27.515,15.068l-14.457-13.734l-20.879,31.699l-14.541-0.616l7.463,28.926l0.644-23.806
			l10.295,1.93l17.018-17.893l17.349,13.734l27.19-16.994c7.836,24.441,32.495,42.294,61.721,42.294
			c35.531,0,64.334-26.376,64.334-58.913C311.855,97.946,283.052,71.57,247.521,71.57z"/>
		<g>
			<path style="fill:#C6FF00;stroke:#263238;stroke-width:2;stroke-linecap:round;stroke-linejoin:round;stroke-miterlimit:10;" d="
				M304.515,169.881H188.449c-3.219,0-5.828-2.609-5.828-5.828V98.007c0-3.219,2.609-5.828,5.828-5.828h116.066
				c3.219,0,5.828,2.609,5.828,5.828v66.046C310.342,167.272,307.733,169.881,304.515,169.881z"/>
			<path style="fill:#FFFFFF;stroke:#263238;stroke-width:2;stroke-linecap:round;stroke-linejoin:round;stroke-miterlimit:10;" d="
				M251.581,129.088l58.762-29.724v-1.356c0-3.218-2.609-5.827-5.828-5.827H188.449c-3.219,0-5.828,2.609-5.828,5.827v1.614
				l57.685,29.605C243.876,130.962,248.055,130.911,251.581,129.088z"/>
			<g>
				
					<ellipse transform="matrix(0.987 -0.1608 0.1608 0.987 -13.4201 50.621)" style="fill:#263238;" cx="305.972" cy="108.205" rx="13.112" ry="13.112"/>
				<g>
					<path style="fill:#C6FF00;" d="M305.186,115.734c-0.308-0.344-0.462-0.832-0.462-1.463l-0.011-11.668l-2.298,1.41
						c-0.174,0.118-0.375,0.178-0.605,0.178c-0.316,0-0.584-0.122-0.805-0.367c-0.221-0.245-0.332-0.529-0.332-0.853
						c0-0.426,0.204-0.766,0.615-1.019l4.194-2.476c0.323-0.197,0.643-0.3,0.959-0.308c0.466,0,0.847,0.17,1.143,0.509
						c0.296,0.34,0.444,0.822,0.444,1.445l0.012,13.219c0,0.577-0.159,1.039-0.474,1.386c-0.316,0.348-0.714,0.521-1.196,0.521
						C305.89,116.249,305.495,116.077,305.186,115.734z"/>
				</g>
			</g>
		</g>
	</g>
</g>
<g id="Mailbox">
	<g>
		<g>
			<g>
				
					<path style="fill:#FFFFFF;stroke:#263238;stroke-width:2;stroke-linecap:round;stroke-linejoin:round;stroke-miterlimit:10;" d="
					M183.5,281.763c0,0,39.5,59.5,49,60.5s39.5-30,39.5-30l-8.5-2l-28.307,19.137c0,0-24.219-29.697-45.456-52.417L183.5,281.763z"
					/>
				
					<path style="fill:#FFFFFF;stroke:#263238;stroke-width:2;stroke-linecap:round;stroke-linejoin:round;stroke-miterlimit:10;" d="
					M190.527,264.03c0,0,7.928,0.345,7.583,3.791c-0.345,3.447,0,12.753-2.068,14.476c-2.068,1.723-5.17,2.413-5.859-1.034
					C189.493,277.817,190.527,264.03,190.527,264.03z"/>
				<path style="fill:#263238;stroke:#263238;stroke-linecap:round;stroke-linejoin:round;stroke-miterlimit:10;" d="
					M188.459,280.229c0,0-0.345,10.34-1.034,11.374c-0.689,1.034-5.515,4.825-8.617,4.136c-3.102-0.689-2.068-3.791-2.068-5.515
					c0-1.723,0-27.229,0-27.229h11.719V280.229z"/>
				
					<path style="fill:#FFFFFF;stroke:#263238;stroke-width:2;stroke-linecap:round;stroke-linejoin:round;stroke-miterlimit:10;" d="
					M172.26,284.021c0,0-2.413,4.481-0.345,7.927c2.068,3.447,7.927,3.447,10.34,1.723c2.413-1.723,0.689-4.136-1.379-4.826
					c-2.068-0.689-4.825-2.413-4.825-4.481C176.051,282.297,173.294,282.642,172.26,284.021z"/>
				
					<path style="fill:#FFFFFF;stroke:#263238;stroke-width:2;stroke-linecap:round;stroke-linejoin:round;stroke-miterlimit:10;" d="
					M170.389,277.462c0.022,2.355,0.401,6.321,2.258,7.958c2.104,1.854,11.768,1.982,15.969-0.829
					c4.2-2.811,1.411-7.704-1.796-7.389c-2.66,0.26-5.512-0.396-8.205-0.735c-1.521-0.191-6.885-1.375-7.938-0.262
					c-0.262,0.277-0.29,0.752-0.288,1.186C170.388,277.414,170.388,277.438,170.389,277.462z"/>
				
					<path style="fill:#FFFFFF;stroke:#263238;stroke-width:2;stroke-linecap:round;stroke-linejoin:round;stroke-miterlimit:10;" d="
					M169.205,268.918c-0.332,2.379-0.487,6.403,1.466,8.143c2.214,1.972,13.656,2.561,19.066-0.078
					c5.41-2.639,2.847-7.713-1.005-7.548c-3.195,0.136-6.477-0.662-9.62-1.132c-1.774-0.265-7.957-1.716-9.375-0.642
					c-0.353,0.267-0.459,0.746-0.522,1.184C169.211,268.87,169.208,268.894,169.205,268.918z"/>
			</g>
			<path style="fill:#FFFFFF;stroke:#263238;stroke-width:2;stroke-linecap:round;stroke-linejoin:round;stroke-miterlimit:10;" d="
				M169.871,257.143c-0.85,2.247-1.89,6.137-0.369,8.266c1.723,2.413,12.753,5.515,18.612,4.136
				c5.859-1.379,4.481-6.893,0.687-7.583c-3.146-0.573-6.171-2.077-9.132-3.229c-1.672-0.651-7.381-3.432-9.002-2.698
				c-0.404,0.183-0.613,0.626-0.771,1.04C169.889,257.097,169.88,257.12,169.871,257.143z"/>
		</g>
		<g>
			<g>
				<polyline style="fill:#263238;stroke:#263238;stroke-linecap:round;stroke-linejoin:round;stroke-miterlimit:10;" points="
					261.568,429.962 293.068,312.201 303.73,312.201 270.292,430.931 				"/>
				
					<polyline style="fill:#FFFFFF;stroke:#263238;stroke-width:2;stroke-linecap:round;stroke-linejoin:round;stroke-miterlimit:10;" points="
					282.434,418.698 312.938,311.716 303.73,312.201 270.292,430.931 				"/>
				
					<line style="fill:none;stroke:#263238;stroke-width:2;stroke-linecap:round;stroke-linejoin:round;stroke-miterlimit:10;" x1="279.499" y1="428.993" x2="280.91" y2="424.046"/>
			</g>
			<path style="fill:#FFFFFF;stroke:#263238;stroke-width:2;stroke-linecap:round;stroke-linejoin:round;stroke-miterlimit:10;" d="
				M240.505,339.858c0,0,3.447,5.17,7.583,5.859c4.136,0.689,47.91-33.778,47.91-33.778l-17.923,2.068L240.505,339.858z"/>
			<path style="fill:#C6FF00;stroke:#263238;stroke-width:2;stroke-linecap:round;stroke-linejoin:round;stroke-miterlimit:10;" d="
				M212.715,284.578c0,0,8.238-68.33,26.654-92.077c20.136-25.965,60.577-4.846,52.338,36.831
				c-6.322,31.98-24.715,89.169-24.715,89.169L212.715,284.578z"/>
			<g>
				<defs>
					<path id="XMLID_2_" d="M271.838,183.778l107.678,34.028c3.522,1.113,6.769,2.981,9.429,5.544
						c6.788,6.539,16.913,20.605,8.408,41.358c-10.635,25.95-27.623,45.069-27.623,45.069l-102.738,8.723l20.838-80.446
						C287.83,238.055,297.522,202.678,271.838,183.778z"/>
				</defs>
				<use xlink:href="#XMLID_2_"  style="overflow:visible;fill:#FFFFFF;"/>
				<clipPath id="XMLID_00000004531161446652379800000000728879911623487388_">
					<use xlink:href="#XMLID_2_"  style="overflow:visible;"/>
				</clipPath>
				<path style="clip-path:url(#XMLID_00000004531161446652379800000000728879911623487388_);fill:#C6FF00;" d="M322.333,278.43
					c-25.901,12.141-39.75,10.03-46.645,6.499l-8.696,33.572l102.738-8.723c0,0,16.988-19.119,27.623-45.069
					c1.2-2.929,2.018-5.72,2.538-8.38C374.927,250.445,355.128,263.057,322.333,278.43z"/>
				<path style="opacity:0.5;clip-path:url(#XMLID_00000004531161446652379800000000728879911623487388_);fill:#FFFFFF;" d="
					M322.333,278.43c-25.901,12.141-39.75,10.03-46.645,6.499l-8.696,33.572l102.738-8.723c0,0,16.988-19.119,27.623-45.069
					c1.2-2.929,2.018-5.72,2.538-8.38C374.927,250.445,355.128,263.057,322.333,278.43z"/>
				
					<use xlink:href="#XMLID_2_"  style="overflow:visible;fill:none;stroke:#263238;stroke-width:2;stroke-linecap:round;stroke-linejoin:round;stroke-miterlimit:10;"/>
			</g>
			<path style="fill:#263238;stroke:#263238;stroke-linecap:round;stroke-linejoin:round;stroke-miterlimit:10;" d="M332.36,193.918
				l-16.865,52.618c-2.866,0.478-5.664,2.843-7.055,6.334c-1.922,4.823-0.43,9.948,3.332,11.447
				c3.762,1.499,8.369-1.196,10.291-6.018c1.582-3.971,0.847-8.141-1.561-10.329l11.858-40.514l16.544,5.64l4.512-11.656
				L332.36,193.918z"/>
			<path style="fill:#263238;stroke:#263238;stroke-linecap:round;stroke-linejoin:round;stroke-miterlimit:10;" d="
				M229.333,240.543c0,0,7.52,8.272,7.896,12.408c0.376,4.136-6.392,15.04-6.392,15.04s13.912,8.648,27.073,2.632
				c13.16-6.016,19.552-31.585,19.552-31.585s-15.792,7.52-21.809,7.52C249.637,246.56,229.333,240.543,229.333,240.543z"/>
			<path style="fill:#C6FF00;stroke:#263238;stroke-linecap:round;stroke-linejoin:round;stroke-miterlimit:10;" d="
				M257.909,270.624c3.63-1.66,6.743-4.81,9.351-8.498c-0.503-1.627-1.535-2.815-3.335-3.158
				c-7.896-1.504-16.168,7.144-16.168,7.144s-0.869,2.031-1.336,6.6C250.065,272.894,254.019,272.403,257.909,270.624z"/>
			<g>
				<path style="fill:#FFFFFF;stroke:#263238;stroke-linecap:round;stroke-linejoin:round;stroke-miterlimit:10;" d="
					M247.005,263.856c-6.174-0.294-10.495-2.421-12.093-3.337c-1.832,3.857-4.076,7.474-4.076,7.474s13.912,8.648,27.073,2.632
					c3.396-1.552,6.337-4.411,8.838-7.792C263.663,263.167,253.621,264.171,247.005,263.856z"/>
				<path style="fill:#FFFFFF;stroke:#263238;stroke-linecap:round;stroke-linejoin:round;stroke-miterlimit:10;" d="
					M255.653,246.56c-6.016,0-26.321-6.016-26.321-6.016s4.301,4.734,6.559,8.831c4.985,2.005,13.789,5.081,20.889,5.081
					c6.427,0,12.989-2.243,17.216-5.102c2.316-5.735,3.465-10.315,3.465-10.315S261.67,246.56,255.653,246.56z"/>
			</g>
			<path style="fill:#263238;" d="M254.149,229.263c0,0,2.256-7.896,8.648-8.648c6.392-0.752,8.272,3.76,8.272,3.76
				S259.038,224.375,254.149,229.263z"/>
			
				<line style="fill:none;stroke:#263238;stroke-linecap:round;stroke-linejoin:round;stroke-miterlimit:10;" x1="272.574" y1="236.783" x2="281.974" y2="240.167"/>
			<path style="fill:#263238;" d="M243.592,221.696c-0.473,2.658-1.685,4.665-2.707,4.483c-1.022-0.182-1.468-2.484-0.995-5.142
				c0.473-2.658,1.685-4.665,2.708-4.483C243.62,216.736,244.065,219.038,243.592,221.696z"/>
			<path style="fill:#263238;" d="M255.653,219.863c0,0-0.376-4.512,9.4-4.512c9.776,0,11.656-1.128,7.896-6.016
				C269.19,204.446,253.397,207.079,255.653,219.863z"/>
			<path style="fill:#263238;" d="M251.893,206.326c0,0-0.752-6.392-6.768-6.392c-6.016,0-9.4,7.144-9.776,4.888
				c-0.376-2.256,1.88-10.152,10.152-10.904C253.773,193.166,251.893,206.326,251.893,206.326z"/>
			<path style="fill:none;stroke:#263238;stroke-linecap:round;stroke-linejoin:round;stroke-miterlimit:10;" d="M294.315,201.113
				c1.352,3.241,2.442,7.386,2.904,12.665c2.401,27.437-21.949,102.202-21.949,102.202"/>
			<path style="fill:none;stroke:#263238;stroke-linecap:round;stroke-linejoin:round;stroke-miterlimit:10;" d="M284.873,190.113
				c0,0,2.653,0.958,5.522,4.395"/>
			<path style="fill:none;stroke:#263238;stroke-linecap:round;stroke-linejoin:round;stroke-miterlimit:10;" d="M369.815,302.799
				c-2.375,3.581-4.004,5.978-4.004,5.978"/>
			<path style="fill:none;stroke:#263238;stroke-linecap:round;stroke-linejoin:round;stroke-miterlimit:10;" d="M373.699,217.207
				c0,0,18.177,10.289,20.578,25.379c2.401,15.09-3.43,22.978-6.859,31.209c-1.965,4.715-8.768,15.507-14.222,23.866"/>
			<path style="fill:#263238;" d="M231.763,275.656c0,0,5.433,5.433,17.657,4.075C249.42,279.731,237.196,285.163,231.763,275.656z"
				/>
		</g>
		<g>
			<g>
				
					<path style="fill:#C6FF00;stroke:#263238;stroke-width:2;stroke-linecap:round;stroke-linejoin:round;stroke-miterlimit:10;" d="
					M121.937,271.268c0,0,31.831-16.688,89.933-6.463c5.559,0.978,10.866-2.73,11.861-8.286l0.841-4.693
					c0.83-4.635-1.599-9.232-5.895-11.16c-15.43-6.928-51.325-26.147-70.2-61.771L121.937,271.268z"/>
				<path style="fill:none;stroke:#FFFFFF;stroke-width:2;stroke-linecap:round;stroke-linejoin:round;stroke-miterlimit:10;" d="
					M150.368,198.236c0,0,15.546,24.379,41.338,33.212"/>
				<path style="fill:#263238;stroke:#263238;stroke-linecap:round;stroke-linejoin:round;stroke-miterlimit:10;" d="
					M218.677,240.667c-6.165-2.768-15.599-7.504-25.906-14.458c2.713,8.663,3.493,21.754-7.725,35.538
					c8.2,0.411,17.139,1.355,26.825,3.059c5.559,0.978,10.866-2.73,11.861-8.286l0.84-4.693
					C225.402,247.192,222.973,242.595,218.677,240.667z"/>
				
					<ellipse transform="matrix(0.2985 -0.9544 0.9544 0.2985 -123.2699 277.6173)" style="fill:#263238;stroke:#263238;stroke-linecap:round;stroke-linejoin:round;stroke-miterlimit:10;" cx="127.208" cy="222.66" rx="54.998" ry="21.197"/>
				
					<ellipse transform="matrix(0.2985 -0.9544 0.9544 0.2985 -123.7682 276.1661)" style="fill:#FFFFFF;stroke:#263238;stroke-linecap:round;stroke-linejoin:round;stroke-miterlimit:10;" cx="125.972" cy="222.274" rx="49.478" ry="17.775"/>
				<path style="fill:#263238;stroke:#263238;stroke-linecap:round;stroke-linejoin:round;stroke-miterlimit:10;" d="
					M146.687,212.634l-9.294-0.492l-6.96,23.82l7.391,5.326c1.867-4.255,3.595-8.855,5.114-13.71
					C144.54,222.451,145.784,217.426,146.687,212.634z"/>
				<path style="fill:#FFFFFF;stroke:#263238;stroke-linecap:round;stroke-linejoin:round;stroke-miterlimit:10;" d="
					M137.923,225.224c-1.922,6.578-5.276,11.385-7.491,10.738c-2.215-0.647-2.452-6.504-0.53-13.082
					c1.922-6.578,5.276-11.385,7.491-10.738C139.607,212.789,139.845,218.646,137.923,225.224z"/>
			</g>
			<g>
				
					<path style="fill:#FFFFFF;stroke:#263238;stroke-width:2;stroke-linecap:round;stroke-linejoin:round;stroke-miterlimit:10;" d="
					M244.296,344.339c-5.17-2.413-47.565-77.896-49.977-82.032c-2.413-4.136-1.723-9.995,0.689-15.51
					c2.413-5.515,2.413-15.855,1.034-17.923c-1.379-2.068-5.63-4.179-5.63-4.179s0.804-0.991,2.528-3.059
					c1.723-2.068,5.859-0.689,5.859-0.689c3.102-2.413,5.873,1.526,5.873,1.526c3.447-2.068,5.157,1.921,5.157,1.921
					s1.999,0.098,3.447,1.034c2.878,1.86,2.413,9.995,2.413,9.995s3.102,0.689,3.791,2.757c0.689,2.068,0.689,6.549-0.689,9.995
					c-1.379,3.447-9.995,13.787-9.995,13.787l42.74,73.415"/>
				<path style="fill:none;stroke:#263238;stroke-linecap:round;stroke-linejoin:round;stroke-miterlimit:10;" d="M198.799,220.946
					c0,0,4.947,3.193,4.947,5.971c0,2.778,0.556,6.482,0.556,6.482"/>
				<path style="fill:none;stroke:#263238;stroke-linecap:round;stroke-linejoin:round;stroke-miterlimit:10;" d="M204.672,222.472
					c0,0,2.963,3.148,3.148,5s0.556,7.593,0.556,7.593"/>
				<path style="fill:none;stroke:#263238;stroke-linecap:round;stroke-linejoin:round;stroke-miterlimit:10;" d="M209.829,224.393
					c0,0,1.695,2.339,1.695,5.117c0,2.778,0.37,5.741,0.37,5.741"/>
				<path style="fill:none;stroke:#263238;stroke-linecap:round;stroke-linejoin:round;stroke-miterlimit:10;" d="M215.688,235.422
					c0,0,1.391,8.902,0.836,10.754"/>
			</g>
		</g>
	</g>
</g>
</svg>
