<?xml version="1.0" encoding="UTF-8" standalone="no"?>
<svg
   width="15.99874"
   height="16"
   fill="#ff0000"
   class="bi bi-bookmarks-fill"
   viewBox="0 0 15.99874 16"
   version="1.1"
   id="svg48"
   sodipodi:docname="bookmarks-fill-cog.svg"
   xml:space="preserve"
   xmlns:inkscape="http://www.inkscape.org/namespaces/inkscape"
   xmlns:sodipodi="http://sodipodi.sourceforge.net/DTD/sodipodi-0.dtd"
   xmlns:xlink="http://www.w3.org/1999/xlink"
   xmlns="http://www.w3.org/2000/svg"
   xmlns:svg="http://www.w3.org/2000/svg"><defs
     id="defs52"><linearGradient
       id="linearGradient3824"
       inkscape:swatch="solid"><stop
         style="stop-color:#ffffff;stop-opacity:1;"
         offset="0"
         id="stop3822" /></linearGradient><linearGradient
       inkscape:collect="always"
       xlink:href="#linearGradient3824"
       id="linearGradient3826"
       x1="0"
       y1="8"
       x2="16"
       y2="8"
       gradientUnits="userSpaceOnUse" /></defs><sodipodi:namedview
     id="namedview50"
     pagecolor="#505050"
     bordercolor="#eeeeee"
     borderopacity="1"
     inkscape:showpageshadow="0"
     inkscape:pageopacity="0"
     inkscape:pagecheckerboard="0"
     inkscape:deskcolor="#505050"
     showgrid="false" /><g
     id="g3691"><path
       id="path3872"
       d="M 4,2 A 2,2 0 0 0 2,4 v 11.5 a 0.5,0.5 0 0 0 0.7773438,0.416016 L 7,13.101562 9.2402344,14.59375 c -0.010338,-0.022 -0.021256,-0.04336 -0.029297,-0.06641 -0.012018,-0.03444 -0.020895,-0.06912 -0.027344,-0.105469 -0.00645,-0.03635 -0.011364,-0.0736 -0.011719,-0.111328 -3.549e-4,-0.03773 0.0035,-0.07665 0.00977,-0.115235 0.00626,-0.03858 0.015893,-0.07631 0.029297,-0.115234 0.013404,-0.03892 0.029712,-0.07846 0.050781,-0.117187 L 9.34375,13.8125 a 0.70706853,0.70706853 0 0 0 0.060547,-0.144531 0.70706853,0.70706853 0 0 0 0.025391,-0.15625 0.70706853,0.70706853 0 0 0 -0.00977,-0.15625 0.70706853,0.70706853 0 0 0 -0.042969,-0.150391 0.70706853,0.70706853 0 0 0 -0.076172,-0.138672 0.70706853,0.70706853 0 0 0 -0.1054687,-0.117187 0.70706853,0.70706853 0 0 0 -0.1269531,-0.0918 0.70706853,0.70706853 0 0 0 -0.1445313,-0.06055 l -0.1640625,-0.04883 c -0.04226,-0.01247 -0.082163,-0.0269 -0.1191406,-0.04492 -0.036977,-0.01802 -0.071821,-0.03966 -0.1035156,-0.0625 -0.031695,-0.02284 -0.061478,-0.0473 -0.087891,-0.07422 -0.026413,-0.02692 -0.049183,-0.05569 -0.070313,-0.08594 -0.02113,-0.03025 -0.03884,-0.06286 -0.054687,-0.0957 -0.015848,-0.03284 -0.030451,-0.06687 -0.041016,-0.101563 -0.010565,-0.0347 -0.018155,-0.06966 -0.023437,-0.105469 -0.00528,-0.03581 -0.00781,-0.07124 -0.00781,-0.107422 0,-0.03618 0.00253,-0.07357 0.00781,-0.109374 0.00528,-0.03581 0.012873,-0.07077 0.023437,-0.105469 0.010565,-0.0347 0.025168,-0.06872 0.041016,-0.101563 0.015847,-0.03284 0.033557,-0.0635 0.054687,-0.09375 0.02113,-0.03025 0.0439,-0.05902 0.070313,-0.08594 0.026412,-0.02692 0.056196,-0.05333 0.087891,-0.07617 0.031695,-0.02284 0.066538,-0.04252 0.1035156,-0.06055 0.036977,-0.01802 0.076881,-0.03441 0.1191406,-0.04687 l 0.1640625,-0.04883 c 0.054032,-0.01594 0.1038567,-0.03604 0.1503907,-0.0625 0.046534,-0.02646 0.088666,-0.05858 0.1269531,-0.09375 0.038287,-0.03517 0.072272,-0.07315 0.1015625,-0.115235 0.02929,-0.04208 0.054673,-0.08758 0.074219,-0.134765 0.019545,-0.04718 0.033918,-0.09601 0.042969,-0.146485 0.00905,-0.05047 0.011958,-0.102339 0.00977,-0.154296 -0.00219,-0.05196 -0.00925,-0.104616 -0.023437,-0.15625 -0.014184,-0.05164 -0.035574,-0.10284 -0.0625,-0.152344 l -0.080078,-0.150391 c -0.0211,-0.0387 -0.039304,-0.0783 -0.052734,-0.117187 -0.013431,-0.03889 -0.023012,-0.076672 -0.029297,-0.1152346 -0.00629,-0.038563 -0.00815,-0.077525 -0.00781,-0.1152344 3.361e-4,-0.03771 0.00333,-0.074996 0.00977,-0.1113281 0.00643,-0.036332 0.015337,-0.071038 0.027344,-0.1054688 0.012007,-0.034431 0.025913,-0.067604 0.042969,-0.099609 0.017056,-0.032005 0.037013,-0.062741 0.058594,-0.091797 0.021581,-0.029056 0.04473,-0.056449 0.070312,-0.082031 0.025582,-0.025582 0.052972,-0.050681 0.082031,-0.072266 0.029059,-0.021585 0.059784,-0.039577 0.091797,-0.056641 0.032013,-0.017063 0.06712,-0.032904 0.1015625,-0.044922 0.034442,-0.012018 0.069121,-0.020895 0.1054688,-0.027344 0.036347,-0.00645 0.0736,-0.00941 0.1113281,-0.00977 0.037729,-3.549e-4 0.076649,0.00155 0.1152344,0.00781 0.038586,0.00626 0.076316,0.015893 0.115235,0.029297 0.03892,0.013404 0.07846,0.031665 0.117187,0.052734 l 0.150391,0.082031 a 0.70706853,0.70706853 0 0 0 0.300781,0.083984 0.70706853,0.70706853 0 0 0 0.306641,-0.052734 0.70706853,0.70706853 0 0 0 0.255859,-0.1796875 0.70706853,0.70706853 0 0 0 0.152344,-0.2734375 L 11.4375,8.7128906 c 0.01247,-0.04226 0.0269,-0.082163 0.04492,-0.1191406 0.01802,-0.036977 0.03966,-0.071821 0.0625,-0.1035156 0.02284,-0.031695 0.0473,-0.059525 0.07422,-0.085937 0.02691,-0.026412 0.05569,-0.051136 0.08594,-0.072266 0.03025,-0.02113 0.06286,-0.03884 0.0957,-0.054687 0.03284,-0.015848 0.06687,-0.028498 0.101563,-0.039063 0.03212,-0.00978 0.06456,-0.018184 0.09766,-0.023437 V 4 A 2,2 0 0 0 10,2 Z" /><path
       id="path3882"
       d="M 6,0 A 2,2 0 0 0 4.2675781,1 H 12 a 1,1 0 0 1 1,1 v 7.1542969 a 0.70706853,0.70706853 0 0 0 0.25,0.1757812 0.70706853,0.70706853 0 0 0 0.308594,0.052734 0.70706853,0.70706853 0 0 0 0.300781,-0.083984 L 14,9.2226562 V 2 A 2,2 0 0 0 12,0 Z" /></g><g
     style="fill:currentColor;stroke:url(#linearGradient3826)"
     id="g3764"
     transform="matrix(0.372694,0,0,0.372694,9.3630803,9.4173347)"><path
       style="display:inline;stroke:none;stroke-width:1.11748"
       d="m 9.1436964,-0.33207197 c -0.461519,-1.56447103 -2.6785978,-1.56447103 -3.1401167,0 L 5.8918317,0.04787099 A 1.6359897,1.6359897 0 0 1 3.5395378,1.0223129 L 3.1931193,0.83234141 C 1.7593934,0.05234095 0.19157003,1.6201643 0.97268798,3.0527728 L 1.161542,3.4003087 c 0.4983958,0.9163331 0.025702,2.0572795 -0.97444192,2.352294 l -0.37994297,0.1117478 c -1.56447091,0.461519 -1.56447091,2.6785979 0,3.1401169 L 0.18710008,9.1162153 A 1.6359897,1.6359897 0 0 1 1.161542,11.468509 l -0.1899715,0.346418 c -0.78000047,1.433726 0.7878229,3.00155 2.2204314,2.220432 l 0.3475359,-0.188855 a 1.6359897,1.6359897 0 0 1 2.3522939,0.974443 l 0.111748,0.379943 c 0.4615189,1.564471 2.6785977,1.564471 3.1401167,0 l 0.111748,-0.379943 a 1.6359897,1.6359897 0 0 1 2.3522936,-0.974443 l 0.346419,0.189973 c 1.433725,0.78 3.001549,-0.787824 2.220432,-2.220432 l -0.188856,-0.347536 a 1.6359897,1.6359897 0 0 1 0.974443,-2.3522937 l 0.379943,-0.1117479 c 1.564471,-0.461519 1.564471,-2.6785979 0,-3.1401169 L 14.960176,5.7526027 a 1.6359897,1.6359897 0 0 1 -0.974443,-2.352294 l 0.189973,-0.3464185 c 0.78,-1.4337259 -0.787824,-3.00154925 -2.220432,-2.2204313 l -0.347536,0.188854 A 1.6359897,1.6359897 0 0 1 9.2554444,0.04787099 Z M 7.5736381,10.708623 a 3.2742143,3.2742143 0 1 1 0,-6.5484282 3.2730968,3.2730968 0 0 1 0,6.5461932 z"
       id="path3850" /></g></svg>
